<svg id="visual" viewBox="0 0 900 450" width="900" height="450" xmlns="http://www.w3.org/2000/svg" xmlns:xlink="http://www.w3.org/1999/xlink" version="1.1"><path d="M0 123L30 135C60 147 120 171 180 197.2C240 223.3 300 251.7 360 235.8C420 220 480 160 540 142.8C600 125.7 660 151.3 720 141.7C780 132 840 87 870 64.5L900 42L900 0L870 0C840 0 780 0 720 0C660 0 600 0 540 0C480 0 420 0 360 0C300 0 240 0 180 0C120 0 60 0 30 0L0 0Z" fill="#3c8a5b"></path><path d="M0 271L30 287.5C60 304 120 337 180 353.5C240 370 300 370 360 346C420 322 480 274 540 251.5C600 229 660 232 720 227.5C780 223 840 211 870 205L900 199L900 40L870 62.5C840 85 780 130 720 139.7C660 149.3 600 123.7 540 140.8C480 158 420 218 360 233.8C300 249.7 240 221.3 180 195.2C120 169 60 145 30 133L0 121Z" fill="#4cab71"></path><path d="M0 375L30 381.7C60 388.3 120 401.7 180 409.8C240 418 300 421 360 403.8C420 386.7 480 349.3 540 329.2C600 309 660 306 720 298.5C780 291 840 279 870 273L900 267L900 197L870 203C840 209 780 221 720 225.5C660 230 600 227 540 249.5C480 272 420 320 360 344C300 368 240 368 180 351.5C120 335 60 302 30 285.5L0 269Z" fill="#67c38a"></path><path d="M0 451L30 451C60 451 120 451 180 451C240 451 300 451 360 451C420 451 480 451 540 451C600 451 660 451 720 451C780 451 840 451 870 451L900 451L900 265L870 271C840 277 780 289 720 296.5C660 304 600 307 540 327.2C480 347.3 420 384.7 360 401.8C300 419 240 416 180 407.8C120 399.7 60 386.3 30 379.7L0 373Z" fill="#8bd1a5"></path></svg>