<svg id="visual" viewBox="0 0 960 540" width="960" height="540" xmlns="http://www.w3.org/2000/svg" xmlns:xlink="http://www.w3.org/1999/xlink" version="1.1"><path d="M0 147L32 161.3C64 175.7 128 204.3 192 235.8C256 267.3 320 301.7 384 282.8C448 264 512 192 576 171.3C640 150.7 704 181.3 768 169.7C832 158 896 104 928 77L960 50L960 0L928 0C896 0 832 0 768 0C704 0 640 0 576 0C512 0 448 0 384 0C320 0 256 0 192 0C128 0 64 0 32 0L0 0Z" fill="#8bd1a5"></path><path d="M0 325L32 344.8C64 364.7 128 404.3 192 424.2C256 444 320 444 384 415.2C448 386.3 512 328.7 576 301.7C640 274.7 704 278.3 768 273C832 267.7 896 253.3 928 246.2L960 239L960 48L928 75C896 102 832 156 768 167.7C704 179.3 640 148.7 576 169.3C512 190 448 262 384 280.8C320 299.7 256 265.3 192 233.8C128 202.3 64 173.7 32 159.3L0 145Z" fill="#67c38a"></path><path d="M0 449L32 457.2C64 465.3 128 481.7 192 491.7C256 501.7 320 505.3 384 484.7C448 464 512 419 576 394.7C640 370.3 704 366.7 768 357.7C832 348.7 896 334.3 928 327.2L960 320L960 237L928 244.2C896 251.3 832 265.7 768 271C704 276.3 640 272.7 576 299.7C512 326.7 448 384.3 384 413.2C320 442 256 442 192 422.2C128 402.3 64 362.7 32 342.8L0 323Z" fill="#4cab71"></path><path d="M0 541L32 541C64 541 128 541 192 541C256 541 320 541 384 541C448 541 512 541 576 541C640 541 704 541 768 541C832 541 896 541 928 541L960 541L960 318L928 325.2C896 332.3 832 346.7 768 355.7C704 364.7 640 368.3 576 392.7C512 417 448 462 384 482.7C320 503.3 256 499.7 192 489.7C128 479.7 64 463.3 32 455.2L0 447Z" fill="#3c8a5b"></path></svg>