<svg xmlns="http://www.w3.org/2000/svg" viewBox="0 0 320 1440">
  <!-- Left Wave -->
  <path fill="#54bc7c" fill-opacity="1" d="M0,224L48,234.7C96,245,192,267,288,250.7C384,235,480,181,576,149.3C672,117,768,107,864,117.3C960,128,1056,160,1152,149.3C1248,139,1344,85,1392,58.7L1440,32L1440,0L1392,0C1344,0,1248,0,1152,0C1056,0,960,0,864,0C768,0,672,0,576,0C480,0,384,0,288,0C192,0,96,0,48,0L0,0Z" transform="rotate(90, 720, 720) translate(0, -720)" />
  <!-- Right Wave -->
  <path fill="#54bc7c" fill-opacity="1" d="M0,224L48,234.7C96,245,192,267,288,250.7C384,235,480,181,576,149.3C672,117,768,107,864,117.3C960,128,1056,160,1152,149.3C1248,139,1344,85,1392,58.7L1440,32L1440,0L1392,0C1344,0,1248,0,1152,0C1056,0,960,0,864,0C768,0,672,0,576,0C480,0,384,0,288,0C192,0,96,0,48,0L0,0Z" transform="rotate(90, 720, 720) translate(0, 720)" />
</svg>
